PathFileType	4	(X/Y/Z)	6_2_61_p0_0-341.trc
DataRate	CameraRate	NumFrames	NumMarkers	Units	OrigDataRate	OrigDataStartFrame	OrigNumFrames
59.0	59.0	6	27	m	59.0	213	342
Frame#	Time	RHip			RKnee			RAnkle			RBigToe			RSmallToe			RHeel			LHip			LKnee			LAnkle			LBigToe			LSmallToe			LHeel			Neck			Head			Nose			RShoulder			RElbow			RWrist			RThumb			RIndex			RPinky			LShoulder			LElbow			LWrist			LThumb			LIndex			LPinky			
		X1	Y1	Z1	X2	Y2	Z2	X3	Y3	Z3	X4	Y4	Z4	X5	Y5	Z5	X6	Y6	Z6	X7	Y7	Z7	X8	Y8	Z8	X9	Y9	Z9	X10	Y10	Z10	X11	Y11	Z11	X12	Y12	Z12	X13	Y13	Z13	X14	Y14	Z14	X15	Y15	Z15	X16	Y16	Z16	X17	Y17	Z17	X18	Y18	Z18	X19	Y19	Z19	X20	Y20	Z20	X21	Y21	Z21	X22	Y22	Z22	X23	Y23	Z23	X24	Y24	Z24	X25	Y25	Z25	X26	Y26	Z26	X27	Y27	Z27	
213	3.610169491525424	0.25914690803907753	0.48025755990875335	0.7159608593114504	0.270939627165089	0.5483763382931881	1.1090709979447833	0.26870383500121076	0.5863887257405693	1.4967904649482084	0.2730440030608973	0.3569903902797507	1.5001666100496363	0.3322705961487712	0.4398011111229118	1.5282883109443295	0.2564239677004181	0.6003341410185997	1.5465865583946945	0.040859534858234924	0.45968390252390223	0.7213641212761047	0.07610850633571431	0.5140838846241778	1.1128049542568594	0.11443830064564191	0.5789941279265142	1.5248345221709128	0.12004442232809032	0.3881185309421263	1.5291730804014294	0.0628759256968224	0.4072839427783846	1.5202629520744413	0.11834686767274585	0.6398990282321436	1.5939199544253524	0.10939445284584139	0.4621793688410714	0.06469739121162138	0.0961881393824437	0.4545229649782228	-0.19251090598772264	0.11439504412578151	0.3650801337738352	-0.05085408963236819	0.28133449268653526	0.5125695690643857	0.16622547023861697	0.3479966140679959	0.49799633982982877	0.446781481703723	0.3559829693394638	0.45322753512500774	0.7007908990585884	0.2924117132338769	0.43651226452625874	0.8274399418219996	0.32005010480251206	0.38171564512354395	0.8209822135544219	0.3696723777393348	0.452067399782837	0.8370245036637753	-0.040198752307816055	0.4763479805700686	0.1771888859032781	-0.08699531888040303	0.4419673595838097	0.453098391792448	-0.05839565153966796	0.4063470459969182	0.6974332758023081	0.024357788055653536	0.39455845145506807	0.7813587775045153	0.0060990854790453205	0.3538351830198278	0.7878293314590963	-0.05989789717640244	0.41972587374810755	0.8214563845248841
214	3.6271186440677967	0.25916589835632925	0.48025987631761424	0.7159853462810556	0.27092391417245215	0.5484363308630085	1.109098512155784	0.2686716342749468	0.5864353565427154	1.4968149097703223	0.27310932158144663	0.3570649691506262	1.500252770052972	0.3329167195366869	0.43814968676714744	1.531704240506226	0.25635788459201614	0.6003166111481736	1.546582540666041	0.040896001748588144	0.45959078617529453	0.7212557334278419	0.0745517363970955	0.5135071197455334	1.1041156835955932	0.1151990562217057	0.5783815125258452	1.5195496725171083	0.11497838347432289	0.40200744076330774	1.538172730469463	0.06285323573667868	0.4074179774009048	1.520257697980977	0.11832078190663836	0.6399051936180482	1.5938650104916914	0.10943429536072184	0.46224706058474085	0.06468625225262763	0.09617109031812462	0.45456909896556147	-0.1925100841577011	0.11443107467970204	0.3650861091731513	-0.050842874431517145	0.28137841539368874	0.5124238831166876	0.16619162312454105	0.3450748824536516	0.4873605972800244	0.4482568029278147	0.35594975570712795	0.4532433898980603	0.7007706199235922	0.29242380166293513	0.4365724660936812	0.8274221689226227	0.3195886200792129	0.3829968046997531	0.8179141135422653	0.369636253803827	0.4523259765973878	0.8368943252867275	-0.040177944844244876	0.4763177697473688	0.17720456320767738	-0.0873876551217829	0.4426536190315015	0.4495276033366732	-0.058335589248961435	0.4063548939014194	0.6973683473472889	0.02432651770535028	0.3944580497033018	0.7813574508435067	0.006075804935892937	0.3537467411467593	0.7877512939789455	-0.05987770737428914	0.41984134526652706	0.8214572085513892
215	3.6440677966101696	0.25914943269662166	0.480286177649294	0.7159688247935736	0.2709190708667729	0.5485087963847005	1.1091940552648551	0.26807192945163777	0.5880800001423571	1.4934719269203944	0.27310548403632534	0.3567977274924696	1.5001219929231615	0.33218259415918955	0.43950537167533044	1.5281198669206706	0.25641829251358605	0.6005418109899668	1.5467298137885075	0.04087409893189015	0.4597170727730116	0.7212532300177426	0.07515017186422618	0.512353465164523	1.1078590231204417	0.11441090420837502	0.5788732683089938	1.5246844740007766	0.12006137855989964	0.38801354514210246	1.5290416577458776	0.06287493562744309	0.4073264648364384	1.520199373092332	0.1182994561107711	0.6398648296591914	1.5939399267464167	0.10939532587546248	0.46194114546495485	0.06468782820703572	0.09618921068299338	0.4541823168740697	-0.19246825029264739	0.11440806945750266	0.36502090956559363	-0.050833479298574236	0.2813593958238671	0.512477538887256	0.166213015182007	0.34880263075509405	0.49913856262284917	0.44655886732228683	0.35595547682517353	0.45331743663676277	0.7007793710203859	0.29241800017637326	0.4364783161789241	0.8274040463414071	0.3195776923994427	0.3828948806127471	0.8179014978465716	0.3696216026688772	0.45242775353544745	0.836925200052714	-0.04022740592102405	0.47615324205620624	0.18036877149522082	-0.08698708899232983	0.4418983230262547	0.4530217767923006	-0.05837534256065094	0.4063573878045683	0.6973603275092657	0.02433046903331184	0.39442561712485746	0.7814178958729733	0.006008174220033277	0.353565512253297	0.7876573730989391	-0.05988214523502353	0.419877619775844	0.8214583957843753
216	3.6610169491525424	0.2586061533254112	0.4814215831966435	0.7123088381350766	0.2709472748996001	0.5482011751637249	1.1089901577929826	0.2680995752328375	0.5878393496238652	1.4933286044236411	0.27293346147464814	0.3570079423202176	1.5001888513977963	0.3282786048983994	0.4271714262856517	1.5212834826860024	0.25780022837649796	0.6021433916139524	1.5524346791897246	0.04085742178424014	0.4597882459201119	0.7212285515168365	0.07518840531299889	0.5125141010027551	1.1079418447144245	0.11527721221241527	0.5782761639656252	1.5197848318654164	0.11305873947841573	0.3860916613839243	1.5338690253079894	0.06186723456809111	0.40540834201014037	1.515399683972595	0.12390771508600497	0.6225883182632685	1.5832574645093107	0.10932945769407823	0.4617680880940809	0.0646897744663332	0.09613018255001811	0.4541208793854317	-0.19248239467474582	0.11439871291647458	0.36494915343827894	-0.05083621164134538	0.2814412274988183	0.5125672974794753	0.1662440263594534	0.3449995552225448	0.4873092203691394	0.44832648820589505	0.3559215651264659	0.45314986304658855	0.7008662397141936	0.2966065912875813	0.4228883772166721	0.821954688719938	0.3196953081708916	0.38247956094523883	0.8179019679494204	0.3695772290024225	0.4521385131357919	0.8372260881336898	-0.040221826145015786	0.4762462789229311	0.18044323802168408	-0.08953433842690926	0.43042392142445074	0.44729097716034677	-0.05772722077781079	0.407655072832072	0.7017914174538167	0.019711677778308595	0.4076169311014102	0.7860752723298154	0.006087437744514966	0.3541928007060331	0.7880328291745781	-0.060327133490156774	0.42072010329119297	0.8183079237527625
217	3.6779661016949152	0.25909296236071955	0.48038921276606483	0.7161891912363986	0.26658713814227636	0.5637491848421928	1.1164977259406645	0.2681067391983582	0.5878959153784961	1.493373195668487	0.2729210567357306	0.35699380370177736	1.5001317093722217	0.3283240054869467	0.4273330981808026	1.521372850900669	0.2578118245377405	0.6023616100423337	1.5526144314575614	0.04087196928000372	0.4600137081853361	0.7213423545886511	0.07520117217033409	0.5124211522923673	1.1079627255323523	0.11453189218859894	0.5788047195934487	1.5250236205400294	0.11299982804346748	0.3860087912527866	1.5337727099208163	0.06284566060128727	0.4070903422731362	1.5205159526138192	0.12394834234348445	0.6224910155901046	1.583336255630504	0.10937076917335971	0.461878763678944	0.0646939447044112	0.09610310242692006	0.45387555545579084	-0.19248146026211596	0.1143703544801339	0.364862243197917	-0.05081347769684365	0.28185336037296327	0.5119343427225777	0.16975397051837515	0.34500900803349255	0.4873584456609488	0.4483267387450904	0.3559054374718679	0.45320378941700057	0.7009431359186924	0.2924817137909903	0.4364349996993041	0.8274119293894977	0.31961548353548175	0.38276907532597493	0.8179251860963132	0.3695656918711068	0.4524171462260642	0.8371174358020046	-0.0402029570870576	0.47621896344313985	0.18042989174718538	-0.08738496037854646	0.4425916482317853	0.4498430138481941	-0.05772560692674957	0.40769879604556886	0.7017926224715602	0.019618342067591242	0.4076787934531364	0.7859553689287969	0.00602329939906989	0.3540390022215595	0.787858143651013	-0.06033270100238956	0.4207680525774961	0.8182499680685897
218	3.694915254237288	0.25535256210828844	0.46931160875906003	0.7089784865893008	0.2663712486244741	0.5637086077307109	1.1164757939379948	0.2681099131570477	0.5879656499156057	1.4932654765393427	0.27303287038054896	0.3571428274294108	1.500345168818943	0.33219296238698964	0.4397061878678771	1.528223030910683	0.25647796733962713	0.6006056334038473	1.5465673222684035	0.040843793758255455	0.4597806809258781	0.7212957778019997	0.07529648641976798	0.5122083617396825	1.1078647531972188	0.11449650232542422	0.5787144427230085	1.5249786800710199	0.12203384412242937	0.38749459257863283	1.5384572229400981	0.06290487329930705	0.4070161970239627	1.5205209836895366	0.12388474647016205	0.6224817153355714	1.5834739293114553	0.1093692851695182	0.46162148272393316	0.0646724735263516	0.09619555439031315	0.45401957320634706	-0.19240916838181318	0.11438031125161116	0.3648588786596246	-0.05083026152989249	0.2856362091836377	0.49835065261831196	0.1639517750916734	0.34549075145638924	0.48648690843842707	0.4520443910498548	0.35592895746652786	0.4531503225315868	0.7010073333752037	0.2925061756525725	0.4363817202644857	0.827400196186958	0.3196591449749613	0.38275265310486256	0.8180004244325043	0.3695229466532687	0.4522819467410717	0.8371637622544437	-0.04020379916899159	0.4760627473969736	0.18034452834780848	-0.08740860632970171	0.4426283798776305	0.44968701130602756	-0.05776335836404927	0.4077141063533246	0.7018108214136121	0.019639964258880923	0.4078066157257611	0.7860685020302103	0.0060745483614560334	0.35422499226557846	0.7880361303989553	-0.06032022126922561	0.4203778880934666	0.8181638854401888
